<?xml version="1.0" standalone="no"?>
<!DOCTYPE svg PUBLIC "-//W3C//DTD SVG 20010904//EN"
 "http://www.w3.org/TR/2001/REC-SVG-20010904/DTD/svg10.dtd">
<svg version="1.0" xmlns="http://www.w3.org/2000/svg"
 width="222.000000pt" height="222.000000pt" viewBox="0 0 222.000000 222.000000"
 preserveAspectRatio="xMidYMid meet">
<metadata>
Created by potrace 1.11, written by Peter Selinger 2001-2013
</metadata>
<g transform="translate(0.000000,222.000000) scale(0.100000,-0.100000)"
fill="#000000" stroke="none">
<path d="M1071 2155 c-5 -5 -94 -179 -198 -385 -105 -206 -245 -481 -310 -610
-395 -774 -508 -1006 -507 -1035 1 -16 2 -38 3 -47 1 -17 58 -18 1042 -18
l1041 0 -4 63 c-4 50 -17 87 -67 192 -35 72 -76 157 -91 190 -15 33 -57 122
-94 198 -36 76 -66 140 -66 141 0 2 -37 79 -81 172 -45 93 -96 201 -114 239
-18 39 -53 113 -78 165 -24 52 -83 176 -130 275 -46 99 -110 234 -142 300 -31
66 -61 130 -66 143 -5 12 -14 22 -21 23 -83 4 -111 2 -117 -6z m188 -1105 c24
-52 63 -135 86 -185 24 -49 58 -124 78 -165 19 -41 49 -106 67 -143 17 -38 30
-71 27 -74 -7 -6 -815 -8 -822 -1 -2 2 19 51 49 109 29 57 124 243 211 414 86
171 160 314 163 319 5 10 50 -76 141 -274z"/>
</g>
</svg>
